<svg xmlns="http://www.w3.org/2000/svg" xmlns:xlink="http://www.w3.org/1999/xlink" width="500" zoomAndPan="magnify" viewBox="0 0 375 374.999991" height="500" preserveAspectRatio="xMidYMid meet" version="1.0"><defs><clipPath id="460b77ee4f"><path d="M 30.648438 280.699219 L 138.691406 280.699219 L 138.691406 374.992188 L 30.648438 374.992188 Z M 30.648438 280.699219 " clip-rule="nonzero"/></clipPath><clipPath id="db1a50cc54"><path d="M 374.992188 187.496094 C 374.992188 291.046875 291.046875 374.992188 187.496094 374.992188 C 83.945312 374.992188 0 291.046875 0 187.496094 C 0 83.945312 83.945312 0 187.496094 0 C 291.046875 0 374.992188 83.945312 374.992188 187.496094 Z M 374.992188 187.496094 " clip-rule="nonzero"/></clipPath><clipPath id="09d4c2ab6f"><path d="M 235.238281 342.511719 L 280.445312 342.511719 L 280.445312 374.992188 L 235.238281 374.992188 Z M 235.238281 342.511719 " clip-rule="nonzero"/></clipPath><clipPath id="36e1c398e1"><path d="M 374.992188 187.496094 C 374.992188 291.046875 291.046875 374.992188 187.496094 374.992188 C 83.945312 374.992188 0 291.046875 0 187.496094 C 0 83.945312 83.945312 0 187.496094 0 C 291.046875 0 374.992188 83.945312 374.992188 187.496094 Z M 374.992188 187.496094 " clip-rule="nonzero"/></clipPath><clipPath id="4753a53b45"><path d="M 270 158.613281 L 341.234375 158.613281 L 341.234375 256.949219 L 270 256.949219 Z M 270 158.613281 " clip-rule="nonzero"/></clipPath><clipPath id="435fe6bff0"><path d="M 374.992188 187.496094 C 374.992188 291.046875 291.046875 374.992188 187.496094 374.992188 C 83.945312 374.992188 0 291.046875 0 187.496094 C 0 83.945312 83.945312 0 187.496094 0 C 291.046875 0 374.992188 83.945312 374.992188 187.496094 Z M 374.992188 187.496094 " clip-rule="nonzero"/></clipPath><clipPath id="f40b2f28e6"><path d="M 149.671875 167.296875 L 184.921875 167.296875 L 184.921875 212.503906 L 149.671875 212.503906 Z M 149.671875 167.296875 " clip-rule="nonzero"/></clipPath><clipPath id="09a11c3673"><path d="M 374.992188 187.496094 C 374.992188 291.046875 291.046875 374.992188 187.496094 374.992188 C 83.945312 374.992188 0 291.046875 0 187.496094 C 0 83.945312 83.945312 0 187.496094 0 C 291.046875 0 374.992188 83.945312 374.992188 187.496094 Z M 374.992188 187.496094 " clip-rule="nonzero"/></clipPath><clipPath id="02e230b8e5"><path d="M 223 0 L 314.925781 0 L 314.925781 71 L 223 71 Z M 223 0 " clip-rule="nonzero"/></clipPath><clipPath id="2fafca5982"><path d="M 374.992188 187.496094 C 374.992188 291.046875 291.046875 374.992188 187.496094 374.992188 C 83.945312 374.992188 0 291.046875 0 187.496094 C 0 83.945312 83.945312 0 187.496094 0 C 291.046875 0 374.992188 83.945312 374.992188 187.496094 Z M 374.992188 187.496094 " clip-rule="nonzero"/></clipPath><clipPath id="9dbe9c58b1"><path d="M 0 23 L 99 23 L 99 188.242188 L 0 188.242188 Z M 0 23 " clip-rule="nonzero"/></clipPath><clipPath id="cf55afe74b"><path d="M 374.992188 187.496094 C 374.992188 291.046875 291.046875 374.992188 187.496094 374.992188 C 83.945312 374.992188 0 291.046875 0 187.496094 C 0 83.945312 83.945312 0 187.496094 0 C 291.046875 0 374.992188 83.945312 374.992188 187.496094 Z M 374.992188 187.496094 " clip-rule="nonzero"/></clipPath><clipPath id="ae0315d5bc"><path d="M 169.851562 97.058594 L 190.539062 97.058594 L 190.539062 124 L 169.851562 124 Z M 169.851562 97.058594 " clip-rule="nonzero"/></clipPath><clipPath id="81c6689e88"><path d="M 374.992188 187.496094 C 374.992188 291.046875 291.046875 374.992188 187.496094 374.992188 C 83.945312 374.992188 0 291.046875 0 187.496094 C 0 83.945312 83.945312 0 187.496094 0 C 291.046875 0 374.992188 83.945312 374.992188 187.496094 Z M 374.992188 187.496094 " clip-rule="nonzero"/></clipPath><clipPath id="da2c53e710"><path d="M 343.277344 105 L 368.820312 105 L 368.820312 140.222656 L 343.277344 140.222656 Z M 343.277344 105 " clip-rule="nonzero"/></clipPath><clipPath id="37690d4312"><path d="M 374.992188 187.496094 C 374.992188 291.046875 291.046875 374.992188 187.496094 374.992188 C 83.945312 374.992188 0 291.046875 0 187.496094 C 0 83.945312 83.945312 0 187.496094 0 C 291.046875 0 374.992188 83.945312 374.992188 187.496094 Z M 374.992188 187.496094 " clip-rule="nonzero"/></clipPath><clipPath id="4971c4a742"><path d="M 176.492188 282 L 235.238281 282 L 235.238281 325.652344 L 176.492188 325.652344 Z M 176.492188 282 " clip-rule="nonzero"/></clipPath><clipPath id="f417bd708d"><path d="M 374.992188 187.496094 C 374.992188 291.046875 291.046875 374.992188 187.496094 374.992188 C 83.945312 374.992188 0 291.046875 0 187.496094 C 0 83.945312 83.945312 0 187.496094 0 C 291.046875 0 374.992188 83.945312 374.992188 187.496094 Z M 374.992188 187.496094 " clip-rule="nonzero"/></clipPath><clipPath id="930194b35d"><path d="M 130.515625 16.089844 L 162 16.089844 L 162 46.742188 L 130.515625 46.742188 Z M 130.515625 16.089844 " clip-rule="nonzero"/></clipPath><clipPath id="30ddeb5c5c"><path d="M 374.992188 187.496094 C 374.992188 291.046875 291.046875 374.992188 187.496094 374.992188 C 83.945312 374.992188 0 291.046875 0 187.496094 C 0 83.945312 83.945312 0 187.496094 0 C 291.046875 0 374.992188 83.945312 374.992188 187.496094 Z M 374.992188 187.496094 " clip-rule="nonzero"/></clipPath><clipPath id="c83624c28f"><path d="M 41.378906 234.214844 L 66.664062 234.214844 L 66.664062 258.222656 L 41.378906 258.222656 Z M 41.378906 234.214844 " clip-rule="nonzero"/></clipPath><clipPath id="84a923445c"><path d="M 374.992188 187.496094 C 374.992188 291.046875 291.046875 374.992188 187.496094 374.992188 C 83.945312 374.992188 0 291.046875 0 187.496094 C 0 83.945312 83.945312 0 187.496094 0 C 291.046875 0 374.992188 83.945312 374.992188 187.496094 Z M 374.992188 187.496094 " clip-rule="nonzero"/></clipPath></defs><path fill="#e8e8e8" d="M 374.992188 187.496094 C 374.992188 291.046875 291.046875 374.992188 187.496094 374.992188 C 83.945312 374.992188 0 291.046875 0 187.496094 C 0 83.945312 83.945312 0 187.496094 0 C 291.046875 0 374.992188 83.945312 374.992188 187.496094 " fill-opacity="1" fill-rule="nonzero"/><g clip-path="url(#460b77ee4f)"><g clip-path="url(#db1a50cc54)"><path fill="#dddddd" d="M 32.402344 301.355469 C 37.359375 288.261719 52.019531 280.566406 66.015625 280.753906 C 80.015625 280.941406 93.199219 287.734375 104.125 296.488281 C 115.167969 305.335938 124.480469 316.335938 131.378906 328.6875 C 135.890625 336.757812 139.449219 345.890625 138.269531 355.058594 C 136.730469 367.011719 126.894531 376.964844 115.351562 380.425781 C 103.808594 383.890625 91.039062 381.496094 80.4375 375.761719 C 74.28125 372.429688 70.363281 368.394531 65.742188 363.46875 C 60.320312 357.699219 53.25 354.101562 47.425781 348.675781 C 36.96875 338.929688 27.027344 315.5625 32.402344 301.355469 " fill-opacity="1" fill-rule="nonzero"/></g></g><g clip-path="url(#09d4c2ab6f)"><g clip-path="url(#36e1c398e1)"><path fill="#dddddd" d="M 258.632812 345.378906 C 263.515625 342.894531 269.550781 341.351562 274.351562 343.988281 C 278.917969 346.5 280.976562 352.296875 280.199219 357.449219 C 279.417969 362.597656 276.285156 367.117188 272.589844 370.785156 C 266.214844 377.109375 243.066406 391.582031 236.425781 378.636719 C 230.402344 366.894531 249.855469 349.847656 258.632812 345.378906 " fill-opacity="1" fill-rule="nonzero"/></g></g><g clip-path="url(#4753a53b45)"><g clip-path="url(#435fe6bff0)"><path fill="#dddddd" d="M 270.136719 217.523438 C 270.691406 202.777344 272.554688 187.402344 280.789062 175.15625 C 289.023438 162.910156 305.351562 154.984375 318.984375 160.628906 C 332.292969 166.140625 338.195312 181.746094 340.144531 196.019531 C 341.605469 206.710938 341.636719 217.785156 338.402344 228.082031 C 335.164062 238.378906 328.363281 247.851562 318.726562 252.699219 C 291.921875 266.1875 269.167969 243.414062 270.136719 217.523438 " fill-opacity="1" fill-rule="nonzero"/></g></g><g clip-path="url(#f40b2f28e6)"><g clip-path="url(#09a11c3673)"><path fill="#dddddd" d="M 159.390625 206.820312 C 163.871094 211.539062 171.285156 214.140625 177.0625 211.136719 C 182.816406 208.144531 184.929688 200.886719 184.882812 194.402344 C 184.832031 187.75 183.027344 180.972656 178.929688 175.738281 C 174.828125 170.503906 168.257812 167.023438 161.625 167.511719 C 159.023438 167.703125 156.402344 168.523438 154.429688 170.230469 C 144.757812 178.59375 152.300781 199.351562 159.390625 206.820312 " fill-opacity="1" fill-rule="nonzero"/></g></g><g clip-path="url(#02e230b8e5)"><g clip-path="url(#2fafca5982)"><path fill="#dddddd" d="M 223.902344 3.066406 C 222.714844 6.910156 223.089844 11.160156 223.691406 15.378906 C 224.839844 23.414062 226.824219 31.613281 231.1875 39.71875 C 239.726562 55.597656 257.632812 70.222656 282.835938 70.855469 C 302.40625 71.34375 316.28125 57.808594 314.582031 45.035156 C 312.835938 31.941406 298.179688 17.144531 282.800781 7.050781 C 264.996094 -4.632812 230.160156 -14.984375 224.058594 2.585938 C 224.003906 2.746094 223.953125 2.90625 223.902344 3.066406 " fill-opacity="1" fill-rule="nonzero"/></g></g><g clip-path="url(#9dbe9c58b1)"><g clip-path="url(#cf55afe74b)"><path fill="#dddddd" d="M 11.292969 79.003906 C 1.039062 99.878906 -4.550781 122.90625 -9.925781 145.632812 C -11.617188 152.773438 -13.308594 160.054688 -12.726562 167.371094 C -12.140625 174.683594 -8.90625 182.167969 -2.691406 186.070312 C 8.53125 193.117188 32.292969 179.984375 42.492188 174.296875 C 56.945312 166.238281 69.621094 154.953125 79.117188 141.390625 C 94.449219 119.488281 101.359375 91.839844 98.136719 65.300781 C 96.710938 53.554688 93.070312 41.761719 86.566406 31.800781 C 78.933594 20.109375 73.097656 21.984375 61.035156 27.367188 C 42.011719 35.847656 26.789062 51.746094 16.378906 69.527344 C 14.5625 72.628906 12.875 75.789062 11.292969 79.003906 " fill-opacity="1" fill-rule="nonzero"/></g></g><g clip-path="url(#ae0315d5bc)"><g clip-path="url(#81c6689e88)"><path fill="#dddddd" d="M 186.449219 120.722656 C 193.617188 114.140625 191.25 94.476562 178.5 97.386719 C 162.226562 101.09375 171.648438 134.320312 186.449219 120.722656 " fill-opacity="1" fill-rule="nonzero"/></g></g><g clip-path="url(#da2c53e710)"><g clip-path="url(#37690d4312)"><path fill="#dddddd" d="M 345.644531 111.308594 C 337.417969 124.074219 354.125 152.3125 365.804688 134.0625 C 368.714844 129.511719 369.03125 123.71875 368.121094 118.394531 C 367.203125 113.011719 364.542969 107.25 359.367188 105.503906 C 354.296875 103.796875 348.542969 106.8125 345.644531 111.308594 " fill-opacity="1" fill-rule="nonzero"/></g></g><g clip-path="url(#4971c4a742)"><g clip-path="url(#f417bd708d)"><path fill="#dddddd" d="M 192.9375 323.234375 C 201.03125 326.488281 210.261719 326.082031 218.589844 323.488281 C 224.617188 321.609375 230.691406 318.222656 233.300781 312.472656 C 242.082031 293.15625 215.640625 284.4375 201.894531 282.421875 C 188.011719 280.382812 175.835938 286.589844 176.726562 302.453125 C 177.253906 311.839844 184.476562 319.835938 192.9375 323.234375 " fill-opacity="1" fill-rule="nonzero"/></g></g><g clip-path="url(#930194b35d)"><g clip-path="url(#30ddeb5c5c)"><path fill="#dddddd" d="M 161.941406 30.597656 C 163.511719 9.992188 132.539062 12.546875 130.640625 30.648438 C 128.382812 52.226562 160.332031 51.695312 161.941406 30.597656 " fill-opacity="1" fill-rule="nonzero"/></g></g><g clip-path="url(#c83624c28f)"><g clip-path="url(#84a923445c)"><path fill="#dddddd" d="M 62.949219 256.507812 C 66.949219 254.101562 67.453125 248.277344 65.710938 243.949219 C 61.703125 234 45.132812 229.386719 41.855469 242.234375 C 39.101562 253.015625 53.902344 261.941406 62.949219 256.507812 " fill-opacity="1" fill-rule="nonzero"/></g></g></svg>